# xmcd
#
# Track frame offsets:
#	150
#	16307
#	32482
#	47872
#	71799
#	95286
#	114103
#	130054
#	145455
#	158789
#	175740
#	192287
#
# Disc length: 2837 seconds
#
# Revision: 0
# Processed by: cddbd v1.5.2PL0 Copyright (c) Steve Scherf et al.
# Submitted via: dBpowerAMP V4.0
#
DISCID=9b0b130c
DTITLE=Evan Westerlund - Howlin' At The Moon 
DYEAR=2008
DGENRE=
TTITLE0=I Miss You
TTITLE1=Lightning
TTITLE2=We Got A Little Somethin'
TTITLE3=Just Can't Let Her Go
TTITLE4=Ghost Riders
TTITLE5=Top Down
TTITLE6=Here I Am
TTITLE7=I Miss My Marie
TTITLE8=Take A Chance
TTITLE9=Never Satisfied
TTITLE10=Waitin' On A Bus
TTITLE11=Howlin' At The Moon
EXTD=
EXTT0=
EXTT1=
EXTT2=
EXTT3=
EXTT4=
EXTT5=
EXTT6=
EXTT7=
EXTT8=
EXTT9=
EXTT10=
EXTT11=
PLAYORDER=
